<?xml version="1.0" encoding="iso-8859-1"?>
<!-- Generator: Adobe Illustrator 19.0.0, SVG Export Plug-In . SVG Version: 6.00 Build 0)  -->
<svg version="1.1" id="Capa_1" xmlns="http://www.w3.org/2000/svg" xmlns:xlink="http://www.w3.org/1999/xlink" x="0px" y="0px"
	 viewBox="0 0 512 512" style="fill:white;enable-background:new 0 0 512 512;" xml:space="preserve">
<g>
	<g>
		<path d="M57.665,198.335C25.869,198.335,0,224.203,0,256s25.868,57.665,57.665,57.665c31.797,0,57.665-25.868,57.665-57.665
			S89.461,198.335,57.665,198.335z M57.665,283.665C42.41,283.665,30,271.255,30,256s12.41-27.665,27.665-27.665
			S85.33,240.745,85.33,256S72.919,283.665,57.665,283.665z"/>
	</g>
</g>
<g>
	<g>
		<path d="M454.335,198.335c-31.796,0-57.665,25.868-57.665,57.665s25.869,57.665,57.665,57.665S512,287.797,512,256
			S486.132,198.335,454.335,198.335z M454.335,283.665c-15.254,0-27.665-12.41-27.665-27.665s12.411-27.665,27.665-27.665
			c15.254,0,27.665,12.41,27.665,27.665S469.59,283.665,454.335,283.665z"/>
	</g>
</g>
<g>
	<g>
		<path d="M361.491,37.807c-31.796,0-57.665,25.868-57.665,57.665s25.869,57.665,57.665,57.665s57.665-25.868,57.665-57.665
			S393.287,37.807,361.491,37.807z M361.491,123.137c-15.254,0-27.665-12.41-27.665-27.665s12.411-27.665,27.665-27.665
			c15.254,0,27.665,12.41,27.665,27.665S376.745,123.137,361.491,123.137z"/>
	</g>
</g>
<g>
	<g>
		<path d="M256,145.697c-60.822,0-110.303,49.482-110.303,110.303S195.179,366.303,256,366.303S366.303,316.821,366.303,256
			S316.822,145.697,256,145.697z M334.877,241h-27.359c-1.827-21.932-7.631-41.721-16.488-57.246
			C313.478,194.682,330.089,215.772,334.877,241z M177.123,271h27.359c1.827,21.932,7.631,41.721,16.488,57.246
			C198.522,317.318,181.911,296.228,177.123,271z M204.484,241h-27.36c4.789-25.238,21.411-46.334,43.872-57.259
			C212.13,199.277,206.315,219.079,204.484,241z M255.995,325.249c-9.911-9.733-18.794-29.002-21.38-54.249h42.767
			C274.79,296.224,265.896,315.516,255.995,325.249z M234.618,241c2.592-25.223,11.486-44.515,21.387-54.249
			c9.912,9.733,18.795,29.001,21.38,54.249H234.618z M291.004,328.259c8.866-15.536,14.681-35.338,16.512-57.259h27.36
			C330.087,296.238,313.465,317.334,291.004,328.259z"/>
	</g>
</g>
<g>
	<g>
		<path d="M150.51,37.807c-31.796,0-57.665,25.868-57.665,57.665s25.869,57.665,57.665,57.665s57.665-25.868,57.665-57.665
			S182.306,37.807,150.51,37.807z M150.51,123.137c-15.254,0-27.665-12.41-27.665-27.665s12.411-27.665,27.665-27.665
			c15.254,0,27.665,12.41,27.665,27.665S165.764,123.137,150.51,123.137z"/>
	</g>
</g>
<g>
	<g>
		<path d="M150.51,358.863c-31.796,0-57.665,25.868-57.665,57.665s25.869,57.665,57.665,57.665s57.665-25.868,57.665-57.665
			S182.306,358.863,150.51,358.863z M150.51,444.193c-15.254,0-27.665-12.41-27.665-27.665s12.411-27.665,27.665-27.665
			c15.254,0,27.665,12.41,27.665,27.665S165.764,444.193,150.51,444.193z"/>
	</g>
</g>
<g>
	<g>
		<path d="M361.491,358.863c-31.796,0-57.665,25.868-57.665,57.665s25.869,57.665,57.665,57.665s57.665-25.868,57.665-57.665
			S393.287,358.863,361.491,358.863z M361.491,444.193c-15.254,0-27.665-12.41-27.665-27.665s12.411-27.665,27.665-27.665
			c15.254,0,27.665,12.41,27.665,27.665S376.745,444.193,361.491,444.193z"/>
	</g>
</g>
<g>
</g>
<g>
</g>
<g>
</g>
<g>
</g>
<g>
</g>
<g>
</g>
<g>
</g>
<g>
</g>
<g>
</g>
<g>
</g>
<g>
</g>
<g>
</g>
<g>
</g>
<g>
</g>
<g>
</g>
</svg>
